<svg xmlns="http://www.w3.org/2000/svg" width="19" height="15.5" viewBox="0 0 19 15.5">
  <g id="Group_253" data-name="Group 253" transform="translate(-5001 -3925.5)">
    <g id="Union_23" data-name="Union 23" transform="translate(5001 3925.5)" fill="none">
      <path d="M2,15.5a2,2,0,0,1-2-2V3.5a2,2,0,0,1,2-2h.5V1a1,1,0,1,1,2,0v.5h9V1a1,1,0,0,1,2,0v.5H17a2,2,0,0,1,2,2v10a2,2,0,0,1-2,2Z" stroke="none"/>
      <path d="M 17.00010108947754 14.69980049133301 C 17.66167068481445 14.69980049133301 18.19989967346191 14.16157054901123 18.19989967346191 13.5 L 18.19989967346191 3.500100374221802 C 18.19989967346191 2.838530302047729 17.66167068481445 2.300300359725952 17.00010108947754 2.300300359725952 L 15.49980068206787 2.300300359725952 L 14.69980049133301 2.300300359725952 L 14.69980049133301 1.500300288200378 L 14.69980049133301 0.9999003410339355 C 14.69980049133301 0.8896703124046326 14.61013031005859 0.8000003695487976 14.49990081787109 0.8000003695487976 C 14.38967037200928 0.8000003695487976 14.30000019073486 0.8896703124046326 14.30000019073486 0.9999003410339355 L 14.30000019073486 1.500300288200378 L 14.30000019073486 2.300300359725952 L 13.5 2.300300359725952 L 4.500000476837158 2.300300359725952 L 3.700000524520874 2.300300359725952 L 3.700000524520874 1.500300288200378 L 3.700000524520874 0.9999003410339355 C 3.700000524520874 0.8896703124046326 3.61033034324646 0.8000003695487976 3.500100374221802 0.8000003695487976 C 3.389870405197144 0.8000003695487976 3.300200462341309 0.8896703124046326 3.300200462341309 0.9999003410339355 L 3.300200462341309 1.500300288200378 L 3.300200462341309 2.300300359725952 L 2.500200510025024 2.300300359725952 L 1.999800443649292 2.300300359725952 C 1.33823037147522 2.300300359725952 0.8000004291534424 2.838530302047729 0.8000004291534424 3.500100374221802 L 0.8000004291534424 13.5 C 0.8000004291534424 14.16157054901123 1.33823037147522 14.69980049133301 1.999800443649292 14.69980049133301 L 17.00010108947754 14.69980049133301 M 17.00010108947754 15.49980068206787 L 1.999800443649292 15.49980068206787 C 0.8955004215240479 15.49980068206787 4.089355343239731e-07 14.6043004989624 4.089355343239731e-07 13.5 L 4.089355343239731e-07 3.500100374221802 C 4.089355343239731e-07 2.395800352096558 0.8955004215240479 1.500300288200378 1.999800443649292 1.500300288200378 L 2.500200510025024 1.500300288200378 L 2.500200510025024 0.9999003410339355 C 2.500200510025024 0.4473003447055817 2.947500467300415 3.410339388665307e-07 3.500100374221802 3.410339388665307e-07 C 4.052700519561768 3.410339388665307e-07 4.500000476837158 0.4473003447055817 4.500000476837158 0.9999003410339355 L 4.500000476837158 1.500300288200378 L 13.5 1.500300288200378 L 13.5 0.9999003410339355 C 13.5 0.4473003447055817 13.94729995727539 3.410339388665307e-07 14.49990081787109 3.410339388665307e-07 C 15.05250072479248 3.410339388665307e-07 15.49980068206787 0.4473003447055817 15.49980068206787 0.9999003410339355 L 15.49980068206787 1.500300288200378 L 17.00010108947754 1.500300288200378 C 18.10440063476562 1.500300288200378 18.99990081787109 2.395800352096558 18.99990081787109 3.500100374221802 L 18.99990081787109 13.5 C 18.99990081787109 14.6043004989624 18.10440063476562 15.49980068206787 17.00010108947754 15.49980068206787 Z" stroke="none" fill="#2e2e2e"/>
    </g>
    <g id="Rectangle_316" data-name="Rectangle 316" transform="translate(5004 3930)" fill="none" stroke="#2e2e2e" stroke-width="0.8">
      <rect width="12" height="3" rx="1.5" stroke="none"/>
      <rect x="0.4" y="0.4" width="11.2" height="2.2" rx="1.1" fill="none"/>
    </g>
    <g id="Rectangle_317" data-name="Rectangle 317" transform="translate(5004 3934)" fill="none" stroke="#2e2e2e" stroke-width="0.6">
      <rect width="3" height="2" rx="1" stroke="none"/>
      <rect x="0.3" y="0.3" width="2.4" height="1.4" rx="0.7" fill="none"/>
    </g>
    <g id="Rectangle_328" data-name="Rectangle 328" transform="translate(5003.5 3929.5) rotate(-90)" fill="none" stroke="#2e2e2e" stroke-width="0.6">
      <rect width="4" height="2" rx="1" stroke="none"/>
      <rect x="0.3" y="0.3" width="3.4" height="1.4" rx="0.7" fill="none"/>
    </g>
    <g id="Rectangle_329" data-name="Rectangle 329" transform="translate(5014.5 3929.5) rotate(-90)" fill="none" stroke="#2e2e2e" stroke-width="0.6">
      <rect width="4" height="2" rx="1" stroke="none"/>
      <rect x="0.3" y="0.3" width="3.4" height="1.4" rx="0.7" fill="none"/>
    </g>
    <g id="Rectangle_323" data-name="Rectangle 323" transform="translate(5004 3937)" fill="none" stroke="#2e2e2e" stroke-width="0.6">
      <rect width="3" height="2" rx="1" stroke="none"/>
      <rect x="0.3" y="0.3" width="2.4" height="1.4" rx="0.7" fill="none"/>
    </g>
    <g id="Rectangle_319" data-name="Rectangle 319" transform="translate(5009 3934)" fill="none" stroke="#2e2e2e" stroke-width="0.6">
      <rect width="3" height="2" rx="1" stroke="none"/>
      <rect x="0.3" y="0.3" width="2.4" height="1.4" rx="0.7" fill="none"/>
    </g>
    <g id="Rectangle_322" data-name="Rectangle 322" transform="translate(5009 3937)" fill="none" stroke="#2e2e2e" stroke-width="0.6">
      <rect width="3" height="2" rx="1" stroke="none"/>
      <rect x="0.3" y="0.3" width="2.4" height="1.4" rx="0.7" fill="none"/>
    </g>
    <g id="Rectangle_320" data-name="Rectangle 320" transform="translate(5014 3934)" fill="none" stroke="#2e2e2e" stroke-width="0.6">
      <rect width="3" height="2" rx="1" stroke="none"/>
      <rect x="0.3" y="0.3" width="2.4" height="1.4" rx="0.7" fill="none"/>
    </g>
    <g id="Rectangle_321" data-name="Rectangle 321" transform="translate(5014 3937)" fill="none" stroke="#2e2e2e" stroke-width="0.6">
      <rect width="3" height="2" rx="1" stroke="none"/>
      <rect x="0.3" y="0.3" width="2.4" height="1.4" rx="0.7" fill="none"/>
    </g>
  </g>
</svg>


