<svg id="discount" xmlns="http://www.w3.org/2000/svg" width="16.918" height="17.631" viewBox="0 0 16.918 17.631">
  <g id="Group_216" data-name="Group 216" transform="translate(0 0)">
    <g id="Group_215" data-name="Group 215">
      <path id="Path_224" data-name="Path 224" d="M26.461,9.042a.517.517,0,0,1,0-.457l.658-1.345a1.531,1.531,0,0,0-.66-2.032l-1.323-.7a.517.517,0,0,1-.268-.369l-.259-1.475A1.531,1.531,0,0,0,22.88,1.405l-1.483.21a.517.517,0,0,1-.434-.141L19.887.433a1.531,1.531,0,0,0-2.137,0L16.673,1.474a.517.517,0,0,1-.434.141l-1.483-.21a1.53,1.53,0,0,0-1.729,1.256l-.259,1.475a.517.517,0,0,1-.268.369l-1.323.7a1.531,1.531,0,0,0-.66,2.033l.658,1.345a.517.517,0,0,1,0,.457l-.658,1.345a1.531,1.531,0,0,0,.66,2.032l1.323.7a.517.517,0,0,1,.268.369l.259,1.475a1.53,1.53,0,0,0,1.509,1.272,1.572,1.572,0,0,0,.22-.016l1.483-.21a.517.517,0,0,1,.434.141l1.076,1.041a1.531,1.531,0,0,0,2.137,0l1.076-1.041a.517.517,0,0,1,.434-.141l1.483.21a1.53,1.53,0,0,0,1.729-1.256l.259-1.475a.517.517,0,0,1,.268-.369l1.323-.7a1.531,1.531,0,0,0,.66-2.033Zm-.479,2.479-1.323.7a1.527,1.527,0,0,0-.793,1.092l-.259,1.475a.518.518,0,0,1-.585.425l-1.483-.21a1.527,1.527,0,0,0-1.284.417l-1.076,1.041a.518.518,0,0,1-.723,0L17.38,15.423a1.526,1.526,0,0,0-1.065-.433,1.561,1.561,0,0,0-.219.015l-1.483.21a.518.518,0,0,1-.585-.425l-.259-1.475a1.527,1.527,0,0,0-.793-1.092l-1.323-.7a.518.518,0,0,1-.223-.688l.658-1.345a1.527,1.527,0,0,0,0-1.35l-.658-1.345a.518.518,0,0,1,.223-.688l1.323-.7a1.527,1.527,0,0,0,.793-1.092l.259-1.475a.518.518,0,0,1,.585-.425l1.483.21A1.527,1.527,0,0,0,17.38,2.2l1.076-1.041a.518.518,0,0,1,.723,0L20.256,2.2a1.527,1.527,0,0,0,1.284.417l1.483-.21a.518.518,0,0,1,.585.425l.259,1.475A1.527,1.527,0,0,0,24.659,5.4l1.323.7a.518.518,0,0,1,.223.688l-.658,1.345a1.527,1.527,0,0,0,0,1.35l.658,1.345A.518.518,0,0,1,25.982,11.522Z" transform="translate(-10.359 0.002)"/>
    </g>
  </g>
  <g id="Group_218" data-name="Group 218" transform="translate(4.595 4.952)">
    <g id="Group_217" data-name="Group 217">
      <path id="Path_225" data-name="Path 225" d="M151.371,143.94a.508.508,0,0,0-.719,0l-6.711,6.711a.508.508,0,1,0,.719.719l6.711-6.711A.508.508,0,0,0,151.371,143.94Z" transform="translate(-143.792 -143.792)"/>
    </g>
  </g>
  <g id="Group_220" data-name="Group 220" transform="translate(4.561 4.24)">
    <g id="Group_219" data-name="Group 219">
      <path id="Path_226" data-name="Path 226" d="M144.666,123.116a1.864,1.864,0,1,0,1.864,1.864A1.866,1.866,0,0,0,144.666,123.116Zm0,2.712a.847.847,0,1,1,.847-.847A.848.848,0,0,1,144.666,125.828Z" transform="translate(-142.802 -123.116)"/>
    </g>
  </g>
  <g id="Group_222" data-name="Group 222" transform="translate(8.628 9.663)">
    <g id="Group_221" data-name="Group 221">
      <path id="Path_227" data-name="Path 227" d="M262.786,280.61a1.864,1.864,0,1,0,1.864,1.864A1.866,1.866,0,0,0,262.786,280.61Zm0,2.712a.847.847,0,1,1,.847-.847A.848.848,0,0,1,262.786,283.322Z" transform="translate(-260.922 -280.61)"/>
    </g>
  </g>
</svg>
