<svg id="home" xmlns="http://www.w3.org/2000/svg" width="17.631" height="16.758" viewBox="0 0 17.631 16.758">
  <g id="Group_223" data-name="Group 223" transform="translate(0 0)">
    <path id="Path_236" data-name="Path 236" d="M17.335,20.121l-1.489-1.357v-4.5a.519.519,0,0,0-.519-.518H11.742a.519.519,0,0,0-.519.518v.288l-1.8-1.639a.9.9,0,0,0-1.218,0L.3,20.121a.9.9,0,0,0,.609,1.572H2.169v7.222a.519.519,0,0,0,.519.519H7.023a.519.519,0,0,0,.519-.519V24.53H10.09v4.385a.519.519,0,0,0,.519.518h4.336a.518.518,0,0,0,.518-.518V21.693h1.264a.9.9,0,0,0,.609-1.572Zm-2.391.535a.519.519,0,0,0-.519.518V28.4h-3.3V24.012a.519.519,0,0,0-.519-.518H7.023a.519.519,0,0,0-.519.518V28.4h-3.3V21.175a.519.519,0,0,0-.519-.518H1.248l7.568-6.9,2.577,2.348a.518.518,0,0,0,.868-.383v-.944h2.548v4.211a.518.518,0,0,0,.169.383l1.405,1.28H14.944Z" transform="translate(0 -12.676)" fill="#e35d86"/>
  </g>
</svg>
