<svg xmlns="http://www.w3.org/2000/svg" width="17.631" height="17.622" viewBox="0 0 17.631 17.622">
  <path id="refer" d="M13.9,5.094a5.094,5.094,0,1,0-7.976,4.2A8.825,8.825,0,0,0,0,17.621H1.376A7.442,7.442,0,0,1,8.81,10.187,5.1,5.1,0,0,0,13.9,5.094ZM8.81,8.811a3.717,3.717,0,1,1,3.717-3.717A3.721,3.721,0,0,1,8.81,8.811Zm8.82,3.855-3.24,3.24-.973-.973,1.613-1.613H13.836a3,3,0,0,0-2.994,2.991v1.311H9.464V16.309a4.376,4.376,0,0,1,4.371-4.367h1.125L13.417,10.4l.973-.973Zm0,0" transform="translate(0)"/>
</svg>
