<svg xmlns="http://www.w3.org/2000/svg" width="15.82" height="15.821" viewBox="0 0 15.82 15.821">
  <g id="repair" transform="translate(-0.01 0)">
    <g id="Group_255" data-name="Group 255" transform="translate(0.01 0)">
      <g id="Group_254" data-name="Group 254" transform="translate(0 0)">
        <path id="Path_255" data-name="Path 255" d="M15.153,11.868l-3.32-3.319a2.341,2.341,0,0,0-1.29-.65l1.463-1.463a3.243,3.243,0,0,0,3.5-4.59.463.463,0,0,0-.746-.128L13.7,2.78h-.655V2.124L14.1,1.062a.463.463,0,0,0-.128-.745,3.243,3.243,0,0,0-4.59,3.5l-1.8,1.8L5.059,3.084l.328-.328A.463.463,0,0,0,5.3,2.031L2.022.066a.463.463,0,0,0-.566.07L.146,1.446a.463.463,0,0,0-.07.566L2.041,5.287a.463.463,0,0,0,.725.089l.328-.328L5.623,7.578l-1.8,1.8a3.243,3.243,0,0,0-3.5,4.59.463.463,0,0,0,.746.128l1.063-1.063h.655v.655L1.727,14.75a.463.463,0,0,0,.128.745A3.243,3.243,0,0,0,6.444,12l1.463-1.463a2.342,2.342,0,0,0,.65,1.29l3.319,3.319a2.316,2.316,0,1,0,3.276-3.276ZM2.531,4.3,1.057,1.845l.8-.8L4.312,2.521Zm1.218.092L4.4,3.739,6.933,6.268l-.655.655ZM5.61,11.521a.463.463,0,0,0-.12.447,2.317,2.317,0,0,1-2.565,2.893l.655-.655a.463.463,0,0,0,.136-.328v-1.31a.463.463,0,0,0-.463-.463H1.942a.463.463,0,0,0-.328.136L.959,12.9a2.317,2.317,0,0,1,2.893-2.565.463.463,0,0,0,.447-.12L10.221,4.29a.463.463,0,0,0,.12-.447A2.317,2.317,0,0,1,12.907.95l-.655.655a.463.463,0,0,0-.136.328v1.31a.463.463,0,0,0,.463.463h1.31a.463.463,0,0,0,.328-.136l.655-.655A2.317,2.317,0,0,1,11.978,5.48a.463.463,0,0,0-.447.12ZM14.5,14.488a1.392,1.392,0,0,1-1.966,0L9.214,11.169A1.39,1.39,0,0,1,11.179,9.2L14.5,12.523A1.392,1.392,0,0,1,14.5,14.488Z" transform="translate(-0.01 0)" fill="#2e2e2e"/>
      </g>
    </g>
    <g id="Group_257" data-name="Group 257" transform="translate(9.768 9.759)">
      <g id="Group_256" data-name="Group 256">
        <path id="Path_256" data-name="Path 256" d="M319.882,319.217l-3.273-3.273a.463.463,0,0,0-.655.655l3.273,3.273a.463.463,0,1,0,.655-.655Z" transform="translate(-315.818 -315.807)" fill="#2e2e2e"/>
      </g>
    </g>
  </g>
</svg>
