<svg xmlns="http://www.w3.org/2000/svg" width="88.374" height="90.669" viewBox="0 0 88.374 90.669">
  <g id="Group_35" data-name="Group 35" transform="translate(-779.931 928.151)">
    <path id="Path_94" data-name="Path 94" d="M800.5-809.367c-3.583-1.922-4.172-3.086-3.609-7.236.775-5.724,1.571-11.445,2.337-17.171a2.844,2.844,0,0,0-.063-1.526c-1.517-3.05-3.106-6.064-4.69-9.125-3.113,2.874-9.031,2.418-11.366-.973-.537-.78-.1-2.228-.117-3.327a3.918,3.918,0,0,1-1.331.112,2.116,2.116,0,0,1-1.648-2.678c.367-1.357,1.569-1.807,3.47-1.3l1.306,2.467,2.1-2.225-3.324-.348c-.259-.752-.911-1.672-.68-2.216.326-.767,1.3-1.718,2.01-1.731s1.551.955,2.07,1.681c.294.411.053,1.2.053,1.823l.441.067c.1-.39.364-.823.275-1.164-1.445-5.51-.094-10.8,1.519-15.965a48.9,48.9,0,0,1,4.237-9.3c2.366-4.19,6.97-6.037,10.624-4.437a45.755,45.755,0,0,1,7.527,3.9c3.753,2.567,7.369,2.908,11.472.861a67.73,67.73,0,0,1,8.137-2.941c2.118-.735,3.91-.036,4.546,1.737s-.3,3.508-2.4,4.254c-4.94,1.757-9.869,3.553-14.857,5.164a5.2,5.2,0,0,1-3.362-.236,66.979,66.979,0,0,1-7.065-3.643,8.115,8.115,0,0,1-2.02-2.1c-.545-.69-.917-1.516-1.438-2.227a3.933,3.933,0,0,0-5.47-1.115,3.9,3.9,0,0,0-1.243,5.427c1.528,2.589,3.227,5.078,4.737,7.677a3.448,3.448,0,0,1,.3,2.233c-.554,2.709-1.317,5.375-1.86,8.086a1.958,1.958,0,0,1-1.611,1.792c-2.06.479-4.114.984-6.2,1.487-.075,1.071.415,1.357,1.472,1.115,1.942-.445,3.9-.805,6.016-1.234,1.715,3.283,3.283,6.722,5.237,9.926,2.756,4.515,3.967,9.068,2.708,14.421a116.043,116.043,0,0,0-2.05,14.352,6.181,6.181,0,0,1-4.057,5.638ZM790.3-855.8c-1.529,2.02-3.029,4.032-4.567,6.014-.541.7-1.183,1.315-1.766,1.98a1.468,1.468,0,0,0,.208,2.419,8.284,8.284,0,0,0,6.927,1.932,3.955,3.955,0,0,0,2.523-1.865C794.816-848,792.561-854.288,790.3-855.8Zm-5.424,3.181c.668-.954,1.354-1.51,1.288-1.954a1.888,1.888,0,0,0-1.33-1.184c-.347-.056-1.149.712-1.165,1.133C783.649-854.118,784.25-853.59,784.875-852.617Zm-2.736,3.888c.633-1,1.291-1.578,1.21-2.024a1.9,1.9,0,0,0-1.369-1.138c-.332-.047-1.1.759-1.1,1.184C780.876-850.2,781.486-849.691,782.139-848.729Z" transform="translate(0 -28.115)" fill="#e35d86"/>
    <path id="Path_95" data-name="Path 95" d="M905.633-782.665V-792.97l-2.478-.264c-.093-.8-.179-1.547-.3-2.564-2.66,0-5.291.022-7.922-.005-3.424-.035-4.555-1.026-4.97-4.378-.617-4.977-1.2-9.96-1.8-14.939-.294-2.432.836-4.339,2.865-4.806,2.163-.5,3.918.536,4.825,2.843.1.262.212.521.358.877,1.741-4.393,3.394-8.679,5.139-12.927a11.456,11.456,0,0,1,7.236-6.814c3.018-1,6.006-1.091,8.487,1.2,2.6,2.4,2.962,5.506,2.2,8.819a8.291,8.291,0,0,1-.355,1.186,6.344,6.344,0,0,0,2.133,7.777,57.688,57.688,0,0,0,8.206,5.495c2.879,1.591,5,3.486,5.843,6.838a67.219,67.219,0,0,0,2.9,7.605l-4.483.578c.9,2.86,1.77,5.659,2.648,8.456.212.675.444,1.343.654,2.019,1.023,3.294-.149,6-2.989,6.917-2.8.9-5.369-.647-6.435-3.935-1.381-4.258-2.73-8.527-4.093-12.79h-11.7l-.259,2.57-2.433.171v10.377c2.518,0,5.034-.007,7.55.005a3.456,3.456,0,0,1,1.727.163c.564.374,1.235,1.087,1.241,1.66s-.695,1.213-1.213,1.685c-.246.223-.788.159-1.2.16q-9.745.012-19.489.005c-.236,0-.553.09-.695-.028-.659-.545-1.648-1.058-1.813-1.751-.277-1.159.671-1.839,1.816-1.872,2.183-.063,4.369-.024,6.554-.027C904.1-782.666,904.79-782.665,905.633-782.665Zm30.655-15.325a35.31,35.31,0,0,1-1.892-4.916c-.882-4.037-3.4-6.391-6.992-8.207a38.476,38.476,0,0,1-7.631-5.354,7.276,7.276,0,0,1-2.138-8.366,12.933,12.933,0,0,0,.718-3.8c.084-4.183-2.6-6.839-6.746-6.61a9.909,9.909,0,0,0-9.145,6.72c-3.187,8.111-6.157,16.307-9.276,24.445a1.6,1.6,0,0,0,.784,2.221c2.294,1.148,4.574,2.556,7.03,3.11C912.609-796.125,924.327-797.131,936.288-797.99Z" transform="translate(-69.703 -58.969)" fill="#e35d86"/>
    <path id="Path_96" data-name="Path 96" d="M952.194-877.746a8.789,8.789,0,0,1,9.043-8.687,8.87,8.87,0,0,1,8.672,8.921,8.878,8.878,0,0,1-8.995,8.779A8.8,8.8,0,0,1,952.194-877.746Z" transform="translate(-110.978 -26.876)" fill="#e35d86"/>
    <path id="Path_97" data-name="Path 97" d="M854.792-910.407a8.932,8.932,0,0,1-8.884-8.738,9.03,9.03,0,0,1,8.832-9.006,8.964,8.964,0,0,1,8.945,8.866A8.864,8.864,0,0,1,854.792-910.407Z" transform="translate(-42.504 0)" fill="#e35d86"/>
    <path id="Path_98" data-name="Path 98" d="M848.378-853.532c-1.887.095-3.774.174-5.659.289a3.362,3.362,0,0,1-3.27-1.694c-2.569-4.1-5.161-8.184-7.689-12.307a3.11,3.11,0,0,1,.9-4.485,3.083,3.083,0,0,1,4.436,1.141q3.136,4.821,6.123,9.737a2,2,0,0,0,2.118,1.12c3.474-.236,6.956-.356,10.438-.478a3.151,3.151,0,0,1,3.384,2.3,2.891,2.891,0,0,1-1.342,3.515,3.926,3.926,0,0,1-1.833.505c-2.532.175-5.068.281-7.6.412Z" transform="translate(-33.017 -36.014)" fill="#e35d86"/>
    <path id="Path_99" data-name="Path 99" d="M901.836-846.964c.8,1.152,1.318,2.474.219,3.788a2.584,2.584,0,0,1-3.355.567c.3-.223.441-.421.609-.444,2.48-.336,2.683-.751,2.07-3.135a8.23,8.23,0,0,1,.15-2.616c-.543-.28-1.461-.453-1.832-1-1.273-1.871-2.583-2.591-4.5-.268l-.2-.924a7.287,7.287,0,0,1,2.115-1.3c1.8-.361,2.611.92,3.117,2.357,4.614.318,5.623-4.229,8.583-6.075.425.677.424.676-1.381,2.65-.779.852-1.552,1.71-2.507,2.763l6.754-.786.1.775c-1.622.253-3.237.554-4.866.746C904.827-849.613,902.8-849.328,901.836-846.964Z" transform="translate(-74.132 -46.478)" fill="#e35d86"/>
    <path id="Path_100" data-name="Path 100" d="M926.034-824.409c-.306.137-.6.3-.92.407a8.909,8.909,0,0,0-5.413,5.7c-2.182,5.656-4.288,11.341-6.422,17.014a4.45,4.45,0,0,1-.356.994,15.03,15.03,0,0,1-1.132,1.3,4.843,4.843,0,0,1-.044-1.711c2.069-5.7,4.058-11.433,6.377-17.03a23.2,23.2,0,0,1,3.971-5.943c.753-.881,2.2-1.17,3.329-1.728Z" transform="translate(-84.873 -66.196)" fill="#e35d86"/>
  </g>
</svg>
