<svg xmlns="http://www.w3.org/2000/svg" width="112.829" height="69.796" viewBox="0 0 112.829 69.796">
  <g id="Group_32" data-name="Group 32" transform="translate(-1291.137 453.978)">
    <path id="Path_61" data-name="Path 61" d="M1441.805-356.3c-1.157,2.012-2.763,2.628-5.145,2.331-7.221-.9-14.474-1.553-21.715-2.287-.633-.064-1.278-.008-2.148-.008,0,3.382.01,6.6,0,9.825-.016,3.924-1.644,4.949-5.307,3.414a4.1,4.1,0,0,0-1.52-.132q-8.167-.012-16.333.007a3.7,3.7,0,0,0-1.678.286c-2.745,1.472-4.963.308-5.04-2.783-.079-3.161-.106-6.328,0-9.488a2.809,2.809,0,0,0-1.561-2.821c-6.7-4.109-13.359-8.3-20.052-12.429-1.44-.888-2.361-1.988-2.122-3.761a3.167,3.167,0,0,1,4.677-2.388c4.2,2.425,8.329,4.976,12.359,7.667,1.168.78,1.861,2.248,2.842,3.336,4.423,4.906,17.255,13.521,24.175,16.106,1.66-3.844,3.44-7.681,4.954-11.62.562-1.462,1.149-2.143,2.77-1.991,7.827.736,15.662,1.4,23.493,2.095.806.071,1.608.251,2.412.246a5.112,5.112,0,0,1,4.944,2.626Z" transform="translate(-37.839 -42.858)" fill="#e35d86"/>
    <path id="Path_62" data-name="Path 62" d="M1316.721-411.391l-3.369-2.3c-2.168-1.485-3.92-1.462-5.043.068-1.216,1.658-.691,3.213,1.664,4.9,1.492,1.071,3.028,2.085,4.463,3.228a2.157,2.157,0,0,1,.823,1.559c-.649,5.475,1.113,10.282,3.911,14.832a6.154,6.154,0,0,1,.375.779c.024.055-.012.135-.052.448a53.943,53.943,0,0,1-28.148-4.268c-.108-.272-.236-.43-.2-.535,2.388-7.445,5.318-14.651,10.236-20.823a19.759,19.759,0,0,1,5.085-4.462,7.2,7.2,0,0,1,9.063,1.47A5.185,5.185,0,0,1,1316.721-411.391Z" transform="translate(0 -19.475)" fill="#e35d86"/>
    <path id="Path_63" data-name="Path 63" d="M1423.68-353.529c-8.1-4.315-15.819-8.693-22.216-15.027a20.149,20.149,0,0,1-3-3.789c-2.109-3.457-1.686-5.612,1.265-8.376a5.121,5.121,0,0,1,6.258-1c3.167,1.5,6.376,2.911,9.521,4.34-2.026,2.5-2.677,2.66-5.643,1.3-1.737-.794-3.473-1.592-5.234-2.328-1.842-.77-3.637-.173-4.236,1.473a2.893,2.893,0,0,0,1.745,3.965c3.072,1.4,6.107,2.917,9.267,4.089a4.572,4.572,0,0,0,3.462-.437,61.826,61.826,0,0,0,7.992-5.491c2.326-1.942,4.913-1.912,7.845-2.036C1430.76-368.345,1427.727-360.966,1423.68-353.529Z" transform="translate(-58.984 -39.848)" fill="#e35d86"/>
    <path id="Path_64" data-name="Path 64" d="M1472.022-355.887l1.276-6.631c3.847.218,7.692.4,11.532.663,3.66.25,7.315.578,10.971.88a13.686,13.686,0,0,1,1.528.2c2.065.407,3.185,1.809,2.962,3.68a3.346,3.346,0,0,1-3.741,2.941c-5.78-.433-11.552-.963-17.332-1.4C1476.886-355.735,1474.544-355.776,1472.022-355.887Z" transform="translate(-100.648 -50.89)" fill="#e35d86"/>
    <path id="Path_65" data-name="Path 65" d="M1346.942-448.17a7.334,7.334,0,0,1,7.512,7.307,7.343,7.343,0,0,1-7.336,7.486,7.481,7.481,0,0,1-7.565-7.312A7.444,7.444,0,0,1,1346.942-448.17Z" transform="translate(-26.94 -3.232)" fill="#e35d86"/>
    <path id="Path_66" data-name="Path 66" d="M1323.632-346.6h13.188c.546,3.587,1.077,6.975,1.575,10.368.362,2.469.745,4.938,1,7.42.234,2.287-1.2,4.223-3.066,4.373-1.471.118-3.224-1.684-3.514-3.63-.694-4.647-1.454-9.287-2.029-13.949a2.607,2.607,0,0,0-2.026-2.433C1327.125-345.035,1325.553-345.788,1323.632-346.6Z" transform="translate(-18.081 -59.745)" fill="#e35d86"/>
    <path id="Path_67" data-name="Path 67" d="M1349.245-395.983c-5.33.919-9.555-1.256-13.447-4.6-1.387-1.192-2.985-2.138-4.482-3.2-1.28-.91-1.662-2.141-.774-3.43.917-1.331,2.232-1.258,3.485-.386,2.353,1.637,4.746,3.224,7,4.992a7.5,7.5,0,0,0,5.037,1.725c3.159-.056,6.322.145,9.485.188,1.591.021,2.851.5,2.871,2.286.022,1.928-1.359,2.416-3,2.426C1353.362-395.973,1351.3-395.983,1349.245-395.983Z" transform="translate(-21.657 -25.45)" fill="#e35d86"/>
    <path id="Path_68" data-name="Path 68" d="M1417.454-368.007c-.59-.221-1.008-.354-1.406-.532q-4.419-1.975-8.83-3.965c-1.355-.61-2.226-1.539-1.592-3.106.664-1.64,1.969-1.832,3.453-1.188,2.085.9,4.193,1.773,6.205,2.823a2.979,2.979,0,0,0,3.584-.306c2.592-1.926,5.3-3.7,7.947-5.551,1.3-.9,2.65-1.23,3.682.2,1.1,1.518.361,2.72-1.047,3.681-3.335,2.278-6.635,4.608-9.972,6.883A18.321,18.321,0,0,1,1417.454-368.007Z" transform="translate(-63.586 -40.824)" fill="#e35d86"/>
    <path id="Path_69" data-name="Path 69" d="M1303.234-331.261v-18.682c-1.877,0-3.691.079-5.492-.035a3.639,3.639,0,0,1-2.359-.809c-.438-.511-.306-1.579-.234-2.385a2.754,2.754,0,0,1,1.64-.183c3.092.9,6.157,1.895,9.337,2.89v19.205a25.834,25.834,0,0,1,3.618.053c.481.071.876.724,1.311,1.112-.417.339-.828.963-1.252.973q-5.077.112-10.157-.018c-.42-.011-.825-.63-1.237-.967.437-.385.833-1.025,1.318-1.1A23.74,23.74,0,0,1,1303.234-331.261Z" transform="translate(-2.19 -55.96)" fill="#e35d86"/>
    <path id="Path_70" data-name="Path 70" d="M1372.961-394.945c1.572.169,3.158.254,4.711.527a5.169,5.169,0,0,0,5.6-3.567,2,2,0,0,0-.088-1.067c-.6-1.629-5.259-3.332-6.9-2.8a54.542,54.542,0,0,1-5.754,1.219c.753-4.01,3.31-6.337,6.688-6.577a7.451,7.451,0,0,1,7.657,5.069,7.382,7.382,0,0,1-3.158,8.611A6.5,6.5,0,0,1,1372.961-394.945Z" transform="translate(-44.177 -26.01)" fill="#e35d86"/>
    <path id="Path_71" data-name="Path 71" d="M1341.45-451.857l-4.346,3.947a2.635,2.635,0,0,1-1.715-3.325,4.668,4.668,0,0,1,2.5-2.582C1339.482-454.372,1340.793-453.44,1341.45-451.857Z" transform="translate(-24.538 0)" fill="#e35d86"/>
  </g>
</svg>
