<svg xmlns="http://www.w3.org/2000/svg" width="114.875" height="63.602" viewBox="0 0 114.875 63.602">
  <g id="Group_34" data-name="Group 34" transform="translate(-751.675 1217.275)">
    <path id="Path_84" data-name="Path 84" d="M942.733-1201.391a19.511,19.511,0,0,0-1.2,1.812c-5.151,9.943-10.006,20.054-15.534,29.783-3.041,5.353-4.481,10.693-3.837,16.732.16,1.5.421,3.3-1.392,4.107a8.5,8.5,0,0,1-3.33.661c-.86.005-1.72-.686-2.585-.7q-7.849-.107-15.7,0a7.457,7.457,0,0,0-2.589.771,3.533,3.533,0,0,1-4.8-3.235c-.123-3.211.023-6.431-.087-9.643a6.734,6.734,0,0,0-.848-2.855,3.367,3.367,0,0,1,2.74-5.225c2.807-.307,4.872.075,6.65,2.974,2.617,4.266,6.11,8,9.682,12.526,3.629-5.485,6.908-10.179,9.908-15.046a62.324,62.324,0,0,0,7.258-17.023c.964-3.671,3.316-6.98,5.067-10.44,1.181-2.331,2.4-4.641,3.6-6.963,1.958-3.788,4.242-4.092,6.993-.926Z" transform="translate(-76.184 -6.06)" fill="#e35d86"/>
    <path id="Path_85" data-name="Path 85" d="M779-1154.208c-3.933,0-7.733.014-11.533,0-7.129-.033-10.542-5.249-7.789-11.8a37.586,37.586,0,0,1,9.633-13.583c2.412-2.168,5.118-3.353,8.409-2.28,3.07,1,4.162,3.678,2.668,6.95-.609-.985-1.119-1.873-1.688-2.721a3.5,3.5,0,0,0-4.845-1.241c-1.545.989-1.942,2.858-.957,4.739.484.923,1.054,1.8,1.587,2.7.494.831.99,1.661,1.558,2.615l-4.429,6.173a51.775,51.775,0,0,0,5.736-.035c3.98-.481,6.381,2.458,9.336,4.16.459.264.549,1.326.645,2.041.729,5.472,1.4,10.951,2.124,16.424.38,2.868-1.054,5.1-3.611,5.5-2.4.372-4.347-1.3-4.749-4.209-.614-4.435-1.154-8.88-1.735-13.319C779.279-1152.757,779.144-1153.4,779-1154.208Z" transform="translate(-3.878 -19.232)" fill="#e35d86"/>
    <path id="Path_86" data-name="Path 86" d="M913.72-1141.547c-6.871-6.88-11.788-14.929-16.227-23.41a4.348,4.348,0,0,1,4-.316,52.194,52.194,0,0,0,8.128,1.38,31.364,31.364,0,0,0,5.768.648,6.089,6.089,0,0,0,3.864-1.445,91.45,91.45,0,0,0,6.033-7.495c1.4-1.81,1.3-3.581-.164-4.732-1.426-1.119-3.26-.745-4.658.972a22.642,22.642,0,0,0-2.75,3.526c-1.717,3.284-4.325,3.248-7.267,2.31,3.355-3.163,6.551-6.544,10.136-9.444,3.221-2.606,9.355.728,9.337,5.145a27.365,27.365,0,0,1-1.656,8.7C925.973-1159.117,918.654-1147.248,913.72-1141.547Z" transform="translate(-80.136 -20.227)" fill="#e35d86"/>
    <path id="Path_87" data-name="Path 87" d="M861.259-1099.047c-1.874-.254-3.39.672-4.215-1.2-.1-.229-.973-.157-1.489-.16-2.69-.014-5.387-.112-8.069.034-1.527.084-3.33-.859-4.557,1.149-.261.427-1.819.062-3.147.062-.1-1.826-.251-3.572-.28-5.318-.046-2.839-.063-5.681,0-8.52.058-2.512,1.381-4.033,3.8-4.092,4.78-.117,9.564-.085,14.346-.039,1.861.018,3.442,1.1,3.524,2.855C861.409-1109.314,861.259-1104.33,861.259-1099.047Z" transform="translate(-48.244 -55.01)" fill="#e35d86"/>
    <path id="Path_88" data-name="Path 88" d="M773.37-1098.638a32,32,0,0,0-21.341-.088c-.136-1.876-.3-3.252-.321-4.63q-.063-4.922,0-9.846c.033-2.364,1.35-3.825,3.711-3.87,4.772-.092,9.547-.064,14.32-.013,1.968.021,3.487,1.151,3.565,3.044C773.5-1109.157,773.37-1104.259,773.37-1098.638Z" transform="translate(0 -55.035)" fill="#e35d86"/>
    <path id="Path_89" data-name="Path 89" d="M866.381-1134.44l-24.916,2.8c-1.482.167-2.963.42-4.449.461a14.786,14.786,0,0,1-2.814-.476c1.337-.955,2.692-1.484,3.282-2.47.561-.939.323-2.355.47-3.91,3.4-.422,7.143-.931,10.9-1.343,4.149-.456,8.3-.908,12.465-1.157a3.357,3.357,0,0,1,2.367,1.388A47.153,47.153,0,0,1,866.381-1134.44Z" transform="translate(-45.353 -42.173)" fill="#e35d86"/>
    <path id="Path_90" data-name="Path 90" d="M937.863-1209.84a7.573,7.573,0,0,1,7.622-7.434,7.711,7.711,0,0,1,7.511,7.616,7.7,7.7,0,0,1-7.576,7.543A7.549,7.549,0,0,1,937.863-1209.84Z" transform="translate(-102.322)" fill="#e35d86"/>
    <path id="Path_91" data-name="Path 91" d="M806.708-1195.621a7.536,7.536,0,0,1-7.581-7.521,7.579,7.579,0,0,1,7.532-7.587,7.6,7.6,0,0,1,7.588,7.534A7.571,7.571,0,0,1,806.708-1195.621Z" transform="translate(-26.078 -3.597)" fill="#e35d86"/>
    <path id="Path_92" data-name="Path 92" d="M811.1-1151.456c-1.026-.427-1.592-.613-2.108-.891-.656-.354-1.236-.861-1.91-1.167-7.335-3.319-12.309-8.9-15.684-16.1-1.023-2.184-1.059-3.554.43-4.526s3.148-.558,4.135,1.638c3.182,7.074,8.527,11.844,15.348,15.2,1.42.7,2.647,1.8,1.966,3.524C812.9-1152.834,811.8-1152.177,811.1-1151.456Z" transform="translate(-21.426 -23.435)" fill="#e35d86"/>
    <path id="Path_93" data-name="Path 93" d="M920.09-1159.431c-5.042-.624-9.259-1.129-13.471-1.676-1.557-.2-2.81-.906-2.616-2.707s1.492-2.255,3.11-2.046c3.253.42,6.514.793,9.753,1.3a3.231,3.231,0,0,0,3.616-1.431c1.267-1.839,2.749-3.53,4.137-5.286,1.008-1.274,2.243-1.882,3.651-.762s1.089,2.447.077,3.72c-2,2.511-3.905,5.1-6.008,7.515A7.035,7.035,0,0,1,920.09-1159.431Z" transform="translate(-83.703 -24.539)" fill="#e35d86"/>
  </g>
</svg>
