<svg xmlns="http://www.w3.org/2000/svg" width="76.469" height="76.618" viewBox="0 0 76.469 76.618">
  <g id="Group_36" data-name="Group 36" transform="translate(-1113.704 1153.044)">
    <path id="Path_101" data-name="Path 101" d="M1207.332-1038.5c0,1.758-.027,3.041.005,4.323a6.451,6.451,0,0,0,6.455,6.418,6.461,6.461,0,0,0,6.7-6.343,40,40,0,0,1,.192-4.011,9.026,9.026,0,0,1,3.2,7.052q.014,11.518.007,23.036c0,3.365,0,6.73,0,10.2h-19.954c0-3.154,0-6.252,0-9.349q0-11.985.005-23.97A9.68,9.68,0,0,1,1207.332-1038.5Zm6.663,35.684a13.879,13.879,0,0,0,3.238-.068c.631-.156,1.531-.979,1.526-1.493a2.179,2.179,0,0,0-1.44-1.6,42.236,42.236,0,0,0-6.807.014,2.157,2.157,0,0,0-1.428,1.584c0,.525.893,1.351,1.519,1.494A15.291,15.291,0,0,0,1214-1002.819Zm-.145-6.67v.012a4.518,4.518,0,0,0,1.831-.051c.589-.293,1.353-.954,1.37-1.478a2.036,2.036,0,0,0-1.237-1.563,11.223,11.223,0,0,0-3.84.009,1.9,1.9,0,0,0-1.212,1.43,2.5,2.5,0,0,0,1.262,1.588C1212.5-1009.279,1213.232-1009.488,1213.851-1009.488Z" transform="translate(-62.007 -78.713)" fill="#e35d86"/>
    <path id="Path_102" data-name="Path 102" d="M1298.02-975.664h-19.66a7.969,7.969,0,0,1-.145-1.106c-.008-7.364-.029-14.728.009-22.092a9.187,9.187,0,0,1,3.453-7.419c0,1.8-.109,3.317.023,4.818a6.35,6.35,0,0,0,5.753,5.781,6.466,6.466,0,0,0,7.009-4.457,19.1,19.1,0,0,0,.385-3.845c.046-.647.008-1.3.008-2.255a8.757,8.757,0,0,1,3.309,6.573c.114,7.88.037,15.763.028,23.645C1298.192-975.932,1298.109-975.842,1298.02-975.664Zm-9.983-1.687c1.142,0,2.284.014,3.425,0,1.069-.016,1.8-.643,1.58-1.636a2.3,2.3,0,0,0-1.543-1.489c-2.165-.176-4.354-.088-6.533-.06a1.484,1.484,0,0,0-1.648,1.649c.034,1.074.728,1.538,1.761,1.541C1286.066-977.348,1287.052-977.35,1288.038-977.351Zm.221-9.819v-.036c-.568,0-1.24-.191-1.681.045-.637.342-1.524.989-1.531,1.516a2.211,2.211,0,0,0,1.432,1.587,9.157,9.157,0,0,0,3.685-.02,2.148,2.148,0,0,0,1.209-1.631c.028-.46-.722-1.145-1.279-1.411A4.631,4.631,0,0,0,1288.259-987.17Z" transform="translate(-113.044 -100.856)" fill="#e35d86"/>
    <path id="Path_103" data-name="Path 103" d="M1146.02-995.819a9.525,9.525,0,0,1,3.358,7.083c.061,6.541.03,13.082.029,19.624a4.182,4.182,0,0,1-.155.728c-1.357,0-2.693.016-4.028-.013-.278-.006-.743-.112-.8-.28-.542-1.622-1.877-1.378-3.106-1.386-1.35-.009-2.7.008-4.05,0-1.158-.009-2.325-.1-2.834,1.33-.066.185-.5.328-.774.334-1.342.034-2.686.016-4.111.016a8.717,8.717,0,0,1-.155-1.123c-.01-6.282-.025-12.565,0-18.847a9.047,9.047,0,0,1,3.38-7.254c0,1.264,0,2.375,0,3.486.006,3.944,2.747,6.938,6.413,7.006,3.891.071,6.7-2.683,6.827-6.73C1146.052-993.033,1146.02-994.22,1146.02-995.819Zm-6.562,22.332v-.028c.62,0,1.353.207,1.831-.053a2.552,2.552,0,0,0,1.314-1.577,1.938,1.938,0,0,0-1.23-1.455,11.043,11.043,0,0,0-3.85-.028,2.035,2.035,0,0,0-1.26,1.568c.089.586.884,1.189,1.513,1.529C1138.216-973.295,1138.889-973.487,1139.458-973.487Z" transform="translate(-10.774 -108.046)" fill="#e35d86"/>
    <path id="Path_104" data-name="Path 104" d="M1304.847-1142.837v-9.876a10.344,10.344,0,0,1,1.189-.14c3.368-.01,6.737-.024,10.1,0a5.118,5.118,0,0,1,5.383,4.886,4.917,4.917,0,0,1-4.946,5.09C1312.711-1142.718,1308.833-1142.837,1304.847-1142.837Z" transform="translate(-131.354 -0.122)" fill="#e35d86"/>
    <path id="Path_105" data-name="Path 105" d="M1216.391-1144.753v3.374h-1.538c-3.425-.008-6.85.025-10.274-.036a27.291,27.291,0,0,0-8.908,1.055c-1.615.516-2.5-.188-2.56-1.841a15.857,15.857,0,0,1,.013-2.023c.118-1.292,1.043-2.075,2.252-1.655,4.6,1.594,9.339,1.047,14.04,1.12C1211.689-1144.724,1213.963-1144.753,1216.391-1144.753Z" transform="translate(-54.551 -4.846)" fill="#e35d86"/>
    <path id="Path_106" data-name="Path 106" d="M1231.73-1046.875c0,1.086.053,2.175-.012,3.257a3.331,3.331,0,0,1-3.328,3.214,3.273,3.273,0,0,1-3.377-3.151c-.1-2.219-.033-4.446-.035-6.669a1.2,1.2,0,0,1,.049-.46c1.032-2.379,3.132-1.146,4.775-1.341,1.219-.145,1.914.63,1.931,1.893.015,1.086,0,2.172,0,3.258Z" transform="translate(-76.454 -69.319)" fill="#e35d86"/>
    <path id="Path_107" data-name="Path 107" d="M1157.4-1004.221c0,1.033.035,2.068-.008,3.1a3.4,3.4,0,0,1-3.258,3.3,3.233,3.233,0,0,1-3.349-3c-.137-2.318-.069-4.648-.089-6.972a.83.83,0,0,1,.013-.155c.272-1.5,1.3-1.837,4.748-1.607,1.22.081,1.931.638,1.932,1.924q0,1.7,0,3.411Z" transform="translate(-25.419 -98.561)" fill="#e35d86"/>
    <path id="Path_108" data-name="Path 108" d="M1299.54-1015.037c0-.986,0-1.972,0-2.958a2.339,2.339,0,0,1,.06-.924c1.053-2.235,3.075-1.064,4.686-1.248a1.616,1.616,0,0,1,1.911,1.757c.034,2.281.086,4.57-.042,6.845a3.168,3.168,0,0,1-3.47,3.023,3.241,3.241,0,0,1-3.132-3.227c-.048-1.088-.009-2.179-.009-3.268Z" transform="translate(-127.698 -91.214)" fill="#e35d86"/>
    <path id="Path_109" data-name="Path 109" d="M1120.459-1050.224c-.162,1.361.2,3.2-1.844,3.156-1.965-.039-1.541-1.812-1.673-3.165-1.354-.149-3.208.214-3.238-1.755-.031-2.045,1.846-1.612,3.228-1.77.194-1.323-.327-3.232,1.726-3.234,2,0,1.651,1.844,1.819,3.2,1.286.21,3.085-.286,3.132,1.7C1123.658-1050,1121.818-1050.41,1120.459-1050.224Z" transform="translate(0 -66.008)" fill="#e35d86"/>
    <path id="Path_110" data-name="Path 110" d="M1168.3-1106.923c1.258.282,3.083-.245,3.111,1.774s-1.748,1.619-3.073,1.842c-.338,1.255.2,3.258-2.006,3.136-1.916-.105-1.416-1.809-1.592-3.077-1.289-.373-3.429.214-3.226-2.089.158-1.784,1.85-1.433,3.16-1.538.339-1.207-.37-3.167,1.757-3.186C1168.517-1110.08,1168.049-1108.2,1168.3-1106.923Z" transform="translate(-32.848 -29.538)" fill="#e35d86"/>
    <path id="Path_111" data-name="Path 111" d="M1324.123-1055.424c-1.326-.31-3.264.177-3.23-1.881.031-1.925,1.8-1.6,3.168-1.759.338-1.235-.327-3.275,1.938-3.143,1.856.107,1.486,1.786,1.658,3.065,1.206.39,3.177-.218,3.145,1.9-.03,2.007-1.839,1.523-3.105,1.786-.263,1.282.218,3.168-1.887,3.129C1323.8-1052.37,1324.3-1054.171,1324.123-1055.424Z" transform="translate(-142.38 -62.419)" fill="#e35d86"/>
    <path id="Path_112" data-name="Path 112" d="M1265.667-1087.305c-1.267-.307-3.2.22-3.123-1.9.066-1.933,1.81-1.569,3.142-1.7.183-1.353-.237-3.2,1.844-3.166,2,.033,1.534,1.807,1.657,3.123,1.333.245,3.248-.251,3.263,1.785s-1.9,1.579-3.214,1.847c-.2,1.3.306,3.171-1.821,3.119C1265.433-1084.246,1265.884-1086.033,1265.667-1087.305Z" transform="translate(-102.282 -40.526)" fill="#e35d86"/>
    <path id="Path_113" data-name="Path 113" d="M1283.065-1152.969v10.02a13.082,13.082,0,0,1-3.375-.077,2.523,2.523,0,0,1-1.546-1.718,36.014,36.014,0,0,1,.031-6.495,2.561,2.561,0,0,1,1.615-1.657A12.551,12.551,0,0,1,1283.065-1152.969Z" transform="translate(-112.913)" fill="#e35d86"/>
  </g>
</svg>
