<svg xmlns="http://www.w3.org/2000/svg" width="101.458" height="93.25" viewBox="0 0 101.458 93.25">
  <g id="Group_29" data-name="Group 29" transform="translate(-2095.245 -279.376)">
    <path id="Path_39" data-name="Path 39" d="M2162.8,463.089a8.2,8.2,0,0,1,5.938,2.479c3.386,3.448,6.885,6.784,10.288,10.216a1.663,1.663,0,0,0,2.09.459c3.261-1.259,6.557-2.428,9.842-3.625,2.4-.874,4.578-.032,5.431,2.089.865,2.151-.105,4.284-2.467,5.274-4.4,1.846-8.821,3.653-13.231,5.48a4.253,4.253,0,0,1-4.525-.64c-3.149-2.43-6.292-4.87-9.5-7.219a4.409,4.409,0,0,0-2.421-.834q-32.057-.07-64.115-.043a4.438,4.438,0,0,1-4.51-2.79,4.125,4.125,0,0,1,.978-4.828,5.457,5.457,0,0,1,2.967-1.418c9.392-.758,18.8-1.379,28.194-2.059q14.806-1.071,29.61-2.173C2159.115,463.329,2160.863,463.219,2162.8,463.089Z" transform="translate(0 -131.364)" fill="#e35d86"/>
    <path id="Path_40" data-name="Path 40" d="M2159.467,543.99h-9.239c0-2.353,0-4.659,0-6.964,0-3.27-.015-6.54.021-9.81.01-.919-.2-1.343-1.255-1.34-11.375.035-22.751.022-34.126.027a8.035,8.035,0,0,0-.917.114v17.9h-9.261V525.909c-1.771,0-3.372,0-4.973,0-2.5-.007-3.978-1.281-3.972-3.429.006-2.118,1.5-3.444,3.977-3.444q32.42-.01,64.841,0c2.116,0,3.365.893,3.839,2.669a3.244,3.244,0,0,1-1.529,3.651,5.159,5.159,0,0,1-2.159.518c-1.693.073-3.392.023-5.246.023Z" transform="translate(-0.357 -171.365)" fill="#e35d86"/>
    <path id="Path_41" data-name="Path 41" d="M2205.187,364.1c0,1.513,0,2.679,0,3.844,0,3.176-.019,6.352.028,9.527.013.881-.231,1.283-1.161,1.345-6.186.415-12.37.869-18.806,1.328.268-1.8.479-3.509.781-5.2,1.094-6.144,2.122-12.3,3.384-18.414a26.656,26.656,0,0,1,2.31-6.365,6.28,6.28,0,0,1,8.181-3.148,14.9,14.9,0,0,1,4.841,3.095c6.617,6.521,13.1,13.174,19.622,19.794a3.965,3.965,0,1,1-5.385,5.819c-4.212-3.533-8.394-7.1-12.589-10.655C2206.106,364.833,2205.809,364.6,2205.187,364.1Z" transform="translate(-64.356 -48.013)" fill="#e35d86"/>
    <path id="Path_42" data-name="Path 42" d="M2375.951,449.3a9.1,9.1,0,1,1,9.2-9.2A9.122,9.122,0,0,1,2375.951,449.3Z" transform="translate(-194.214 -108.487)" fill="#e35d86"/>
    <path id="Path_43" data-name="Path 43" d="M2232.067,297.577a9.1,9.1,0,1,1,9.146-9.1A9.165,9.165,0,0,1,2232.067,297.577Z" transform="translate(-91.279 0)" fill="#e35d86"/>
  </g>
</svg>
