<svg xmlns="http://www.w3.org/2000/svg" width="101.016" height="59.907" viewBox="0 0 101.016 59.907">
  <g id="Group_33" data-name="Group 33" transform="translate(-293.934 849.091)">
    <path id="Path_72" data-name="Path 72" d="M443.749-832.914q-4.359,8.254-8.718,16.508c-3.465,6.554-6.945,13.1-10.381,19.669a3.846,3.846,0,0,0-.288,1.7c-.027,3.156.019,6.312-.025,9.467-.029,2.02-1.8,3.753-3.667,3.165-5.817-1.831-11.733-.384-17.582-.8a8.34,8.34,0,0,0-3.183.785,3.361,3.361,0,0,1-4.327-2.85c-.041-2.431-.014-4.864-.016-7.3,0-1.035,0-2.069,0-3.3-4.534.343-8.84.668-13.147,1-1.769.135-3.537.29-5.307.414-1.606.112-2.541-.492-2.336-2.269.045-.39.011-.789.031-1.182.139-2.845.161-2.835,3.094-3.025,7.211-.468,14.421-.941,21.628-1.472a2.937,2.937,0,0,1,3,1.633,57.735,57.735,0,0,0,10.346,12.586c6.558-9.361,13.48-18.324,15.956-29.74a20.307,20.307,0,0,1,2.18-4.6c2.033-3.975,4.09-7.937,6.139-11.9,1.822-3.528,4.065-3.814,6.6-.843Z" transform="translate(-48.8 -7.111)" fill="#e35d86"/>
    <path id="Path_73" data-name="Path 73" d="M323.029-790.809l-4.449,1.28c0-1.874.021-3.478,0-5.082-.034-2.131-1.186-3.48-2.922-3.472s-2.909,1.36-2.888,3.51q.043,4.435.213,8.869c.08,1.987,1.451,2.816,3.409,2.9a35.311,35.311,0,0,1,8.2,1.139c1.314.379,2.395,1.9,3.335,3.091.4.507.154,1.514.218,2.292.2,2.383.4,4.765.623,7.407.184-.061-.088.093-.37.113-7.427.53-14.885.873-22.077-1.434-2.473-.793-4.681-2.5-6.883-3.98a2.425,2.425,0,0,1-.615-2.188c2.288-6.728,4.958-13.3,9.282-19.024a18.555,18.555,0,0,1,3.9-3.855c3.66-2.63,8.01-1.049,9.358,3.239C321.881-794.326,322.432-792.656,323.029-790.809Z" transform="translate(-2.91 -29.329)" fill="#e35d86"/>
    <path id="Path_74" data-name="Path 74" d="M443.619-799.618c2.828-2.726,5.646-5.354,8.358-8.089a5.021,5.021,0,0,1,5.926-1.174c2.387.923,4.231,2.363,4.191,5.1a21,21,0,0,1-.854,6.184c-3.034,9.225-8.606,17.016-14.346,24.979-6.629-6.526-11.289-14.146-15.522-22.243a4.021,4.021,0,0,1,3.835-.237c1.687.723,3.7.71,5.573.97,2.6.361,5.2.664,7.8,1.02a3.426,3.426,0,0,0,3.446-1.384c1.89-2.439,3.867-4.809,5.75-7.253,1.258-1.632,1.142-3.3-.183-4.366-1.342-1.077-3.14-.74-4.457.88-1.242,1.528-2.536,3.026-3.637,4.652a2.885,2.885,0,0,1-3.5,1.343A22.565,22.565,0,0,0,443.619-799.618Z" transform="translate(-82.996 -23.992)" fill="#e35d86"/>
    <path id="Path_75" data-name="Path 75" d="M396.178-761.022c-8.624.617-17,1.23-25.372,1.807a3.22,3.22,0,0,1-3.67-3.01,3.251,3.251,0,0,1,3.146-3.385c6.934-.551,13.875-1.014,20.81-1.554a2.221,2.221,0,0,1,2.479,1.409C394.362-764.125,395.313-762.575,396.178-761.022Z" transform="translate(-44.202 -49.466)" fill="#e35d86"/>
    <path id="Path_76" data-name="Path 76" d="M356.334-813.892a7.134,7.134,0,0,1-7.093-7.2,7.236,7.236,0,0,1,7.253-7.074,7.257,7.257,0,0,1,7.106,7.235A7.193,7.193,0,0,1,356.334-813.892Z" transform="translate(-33.399 -12.634)" fill="#e35d86"/>
    <path id="Path_77" data-name="Path 77" d="M481.975-834.875a7.1,7.1,0,0,1-7.176-7.093,7.108,7.108,0,0,1,7.14-7.123A7.125,7.125,0,0,1,489.126-842,7.138,7.138,0,0,1,481.975-834.875Z" transform="translate(-109.22 0)" fill="#e35d86"/>
    <path id="Path_78" data-name="Path 78" d="M315.315-718.1l-.656-3.016c-5.929,0-11.82-.032-17.709.075-.379.007-.9,1.044-1.071,1.679-.28,1.042-.431,1.983-1.944,1.061l2.28-12.284c5.391,4.133,11.54,4.873,17.791,5.153,1.207.054,1.775.413,1.944,1.6.211,1.491.626,2.957.765,4.451.049.525-.458,1.1-.711,1.656Z" transform="translate(0 -71.564)" fill="#e35d86"/>
    <path id="Path_79" data-name="Path 79" d="M440.321-795c4.153.514,7.6.99,11.061,1.325a2.6,2.6,0,0,0,1.932-.73c1.6-1.821,3.06-3.772,4.579-5.669.946-1.182,2.11-1.693,3.393-.633,1.241,1.027,1.1,2.27.133,3.471-1.971,2.461-3.865,4.988-5.951,7.347a3.463,3.463,0,0,1-2.543,1.028c-4.046-.387-8.077-.957-12.1-1.522-2.062-.29-3.172-1.748-2.331-3.171A5.475,5.475,0,0,1,440.321-795Z" transform="translate(-87.123 -28.867)" fill="#e35d86"/>
    <path id="Path_80" data-name="Path 80" d="M340.313-783.8c2.8-.82,5.106-1.52,7.428-2.171,1.973-.553,3.174-.1,3.519,1.372.439,1.87-.752,2.56-2.29,2.995-3.207.908-6.4,1.881-9.607,2.773-2.122.59-3.362-.274-3.434-2.455-.1-2.946-.071-5.9-.09-8.845a2.078,2.078,0,0,1,2.067-2.372,2.088,2.088,0,0,1,2.387,2.262C340.37-788.223,340.313-786.2,340.313-783.8Z" transform="translate(-25.307 -34.167)" fill="#e35d86"/>
    <path id="Path_81" data-name="Path 81" d="M354.654-717.288h6.465a34.283,34.283,0,0,1-.3,5.318,2.9,2.9,0,0,1-3.186,2.363,3.081,3.081,0,0,1-2.948-2.919C354.556-714.012,354.654-715.517,354.654-717.288Z" transform="translate(-36.645 -79.593)" fill="#e35d86"/>
    <path id="Path_82" data-name="Path 82" d="M346.274-828.4c-1.48-.77-2.208-2.09-1.579-3.571a4.312,4.312,0,0,1,2.443-2.166c1.554-.467,2.746.434,3.31,1.9Z" transform="translate(-30.516 -8.953)" fill="#e35d86"/>
    <path id="Path_83" data-name="Path 83" d="M362.832-763.3l-1.6,2.793-2.4-1.564Z" transform="translate(-39.188 -51.81)" fill="#e35d86"/>
  </g>
</svg>
